# Blender v2.79 (sub 0) OBJ File: 'well.blend'
# www.blender.org
mtllib well.mtl
o Cube_Cube.004
v 2.633451 1.973893 3.443744
v 3.038598 1.973893 3.443744
v -2.633451 1.973893 3.038598
v -2.228305 1.552048 3.038598
v -1.823159 1.552048 3.038598
v 1.823159 1.552048 3.038598
v 2.228305 1.552048 3.038598
v 2.633451 1.973893 3.038598
v 3.038598 1.973893 3.038598
v -3.038598 1.973893 2.633451
v -2.633451 1.552048 2.633451
v -2.228305 2.334843 2.633451
v -1.823159 1.552048 2.633451
v -1.418012 1.552048 2.633451
v -1.012866 1.552048 2.633451
v 1.418012 1.973893 2.633451
v 1.823159 2.334843 2.633451
v 2.228305 2.334843 2.633451
v 2.633451 1.552048 2.633451
v 3.038598 1.552048 2.633451
v -3.038598 1.973893 2.228305
v -2.633451 2.334843 2.228305
v -2.228305 2.334843 2.228305
v -1.823159 1.973893 2.228305
v -1.418012 1.552048 2.228305
v -1.012866 1.552048 2.228305
v 1.418012 1.973893 2.228305
v 1.823159 1.973893 2.228305
v 2.228305 1.552048 2.228305
v 2.633451 2.334843 2.228305
v 3.038598 2.334843 2.228305
v -3.038598 1.973893 1.823159
v -2.633451 2.334843 1.823159
v -2.228305 1.552048 1.823159
v -1.418012 1.973893 1.823159
v -1.012866 1.973893 1.823159
v 2.228305 1.552048 1.823159
v 2.633451 1.552048 1.823159
v 3.038598 1.973893 1.823159
v -2.633451 1.552048 1.418012
v -2.228305 1.552048 1.418012
v 2.228305 1.552048 -1.418012
v 2.633451 1.552048 -1.418012
v -3.038598 1.552048 -1.823159
v -2.633451 1.552048 -1.823159
v 2.228305 1.552048 -1.823159
v 2.633451 1.552048 -1.823159
v 3.038598 1.552048 -1.823159
v -3.038598 1.552048 -2.228305
v -2.633451 2.334843 -2.228305
v -2.228305 2.756686 -2.228305
v -1.823159 1.552048 -2.228305
v -1.418012 1.552048 -2.228305
v 1.823159 1.552048 -2.228305
v 2.228305 2.334843 -2.228305
v 2.633451 2.334843 -2.228305
v 3.038598 2.334843 -2.228305
v -3.038598 1.973893 -2.633451
v -2.633451 2.334843 -2.633451
v -2.228305 2.334843 -2.633451
v -1.823159 1.552048 -2.633451
v -1.418012 1.552048 -2.633451
v 1.823159 1.552048 -2.633451
v 2.228305 2.334843 -2.633451
v 2.633451 1.552048 -2.633451
v 3.038598 1.973893 -2.633451
v -3.038598 1.973893 -3.038598
v -2.633451 1.552048 -3.038598
v -2.228305 1.552048 -3.038598
v -1.823159 1.973893 -3.038598
v 1.823159 1.973893 -3.038598
v 2.228305 1.552048 -3.038598
v 2.633451 1.552048 -3.038598
v 3.038598 1.973893 -3.038598
v -3.959768 -6.619130 3.959768
v -3.959768 1.300406 3.959768
v -3.959768 -6.619130 -3.959768
v -3.959768 1.300406 -3.959768
v 3.959768 -6.619130 3.959768
v 3.959768 1.300406 3.959768
v 3.959768 -6.619130 -3.959768
v 3.959768 1.300406 -3.959768
v 3.412832 1.300406 3.038598
v 3.412832 1.300406 3.443744
v 3.412832 1.300406 1.823159
v 3.423068 1.300406 2.228305
v 3.370393 1.300406 2.633451
v 3.038598 1.300406 3.817978
v 2.633451 1.300406 1.491364
v 3.038598 1.300406 1.448925
v 2.228305 1.300406 1.491364
v 1.896510 1.300406 1.823159
v 1.823159 1.300406 1.854071
v 1.418012 1.300406 1.854071
v 1.823159 1.300406 3.370393
v 2.228305 1.300406 3.370393
v 2.633451 1.300406 3.817978
v 2.259218 1.300406 3.443744
v 1.043778 1.300406 2.228305
v 1.043778 1.300406 2.633451
v 1.491364 1.300406 3.038598
v 1.418012 1.300406 3.007685
v -1.896510 1.300406 1.418012
v -2.228305 1.300406 1.086217
v -0.638632 1.300406 1.823159
v -1.012866 1.300406 1.448925
v -1.418012 1.300406 1.448925
v -1.792246 1.300406 1.823159
v -0.681071 1.300406 2.228305
v -1.823159 1.300406 1.854071
v -0.681071 1.300406 2.633451
v -1.896510 1.300406 1.823159
v -1.491364 1.300406 3.038598
v -1.418012 1.300406 2.965247
v -1.012866 1.300406 2.965247
v -1.823159 1.300406 3.370393
v -2.965247 1.300406 1.418012
v -2.633451 1.300406 1.086217
v -3.038598 1.300406 1.448925
v -3.412832 1.300406 1.823159
v -3.412832 1.300406 2.228305
v -3.412832 1.300406 2.633451
v -3.007685 1.300406 3.038598
v -3.038598 1.300406 3.007685
v -2.228305 1.300406 3.370393
v -2.633451 1.300406 3.412832
v 2.965247 1.300406 -1.418012
v 2.633451 1.300406 -1.086217
v 3.370393 1.300406 -1.823159
v 3.038598 1.300406 -1.491364
v 2.228305 1.300406 -1.086217
v 1.896510 1.300406 -1.823159
v 1.896510 1.300406 -1.418012
v -2.301656 1.300406 -1.823159
v -2.633451 1.300406 -1.491364
v -3.038598 1.300406 -1.491364
v -3.370393 1.300406 -1.823159
v 3.423068 1.300406 -2.228305
v 3.412832 1.300406 -2.633451
v 1.823159 1.300406 -1.896510
v 1.491364 1.300406 -2.228305
v 1.491364 1.300406 -2.633451
v -1.086217 1.300406 -2.228305
v -1.418012 1.300406 -1.896510
v -2.228305 1.300406 -1.838066
v -1.823159 1.300406 -1.896510
v -3.412832 1.300406 -2.633451
v -3.370393 1.300406 -2.228305
v 3.412832 1.300406 -3.038598
v 3.038598 1.300406 -3.412832
v 2.633451 1.300406 -3.370393
v 1.448925 1.300406 -3.038598
v -1.448925 1.300406 -3.038598
v -1.823159 1.300406 -3.412832
v -1.418012 1.300406 -2.965247
v -1.086217 1.300406 -2.633451
v -2.228305 1.300406 -3.370393
v -3.412832 1.300406 -3.038598
v -3.038598 1.300406 -3.412832
v 2.228305 1.300406 -3.370393
v 1.823159 1.300406 -3.412832
v -2.633451 1.300406 -3.370393
v -1.315601 1.300406 1.315601
v -1.315601 -6.619130 1.315601
v 1.315601 1.300406 1.315601
v 1.315601 -6.619130 1.315601
v -1.315601 1.300404 -1.315601
v -1.315601 -6.619130 -1.315601
v 1.315601 1.300404 -1.315601
v 1.315601 1.300406 -0.845577
v 1.315601 -6.619130 -1.315601
v 0.000000 1.300404 -1.315601
vn 0.0000 1.0000 0.0000
vn 0.8741 0.4857 0.0000
vn -0.3769 0.8461 0.3769
vn 0.5706 0.5906 0.5706
vn 0.3298 0.8845 0.3298
vn 0.0000 0.4596 0.8881
vn 0.3769 0.8461 0.3769
vn 0.0000 0.6927 -0.7212
vn 0.7486 0.5713 -0.3366
vn 0.0540 0.7182 0.6938
vn -0.5706 0.5906 0.5706
vn 0.7814 0.5536 0.2882
vn 0.4192 0.8053 0.4192
vn 0.6043 0.7968 0.0000
vn -0.3769 0.8461 -0.3769
vn 0.2882 0.5536 -0.7814
vn 0.7729 0.4305 0.4661
vn -0.6652 0.7467 0.0000
vn 0.5706 0.5906 -0.5706
vn 0.3631 0.4401 -0.8213
vn -0.3313 0.8834 -0.3313
vn 0.0000 0.6927 0.7212
vn 0.7486 0.5713 0.3366
vn 0.0000 0.4857 -0.8741
vn 0.1094 0.7412 -0.6623
vn -0.5706 0.5906 -0.5706
vn -0.2882 0.5536 -0.7814
vn 0.8974 0.3987 -0.1889
vn -0.3631 0.4401 -0.8213
vn 0.6581 0.3657 -0.6581
vn 0.0000 0.7968 -0.6043
vn -0.3366 0.5713 -0.7486
vn 0.5172 0.6819 -0.5172
vn -0.0481 0.3329 0.9417
vn -0.7814 0.5536 0.2882
vn -0.4192 0.8053 -0.4192
vn 0.9086 0.3704 -0.1929
vn -0.8881 0.4596 0.0000
vn 0.0540 0.7182 -0.6938
vn 0.0000 0.4596 -0.8881
vn 0.3769 0.8461 -0.3769
vn 0.6623 0.7412 0.1094
vn -0.7212 0.6927 0.0000
vn 0.3366 0.5713 -0.7486
vn -1.0000 0.0000 0.0000
vn 0.0000 0.0000 -1.0000
vn 1.0000 0.0000 0.0000
vn 0.0000 0.0000 1.0000
vn 0.0000 -1.0000 0.0000
vn -0.5172 0.6819 0.5172
vn -0.3313 0.8834 0.3313
vn -0.8741 0.4857 0.0000
vn -0.6581 0.3657 -0.6581
vn -0.6043 0.7968 0.0000
vn 0.5172 0.6819 0.5172
vn 0.3366 0.5713 0.7486
vn 0.5422 0.3272 0.7739
vn -0.6269 0.4626 0.6269
vn 0.6581 0.3657 0.6581
vn 0.0000 0.4857 0.8741
vn -0.6581 0.3657 0.6581
vn -0.7986 0.5633 0.2121
vn -0.5172 0.6819 -0.5172
vn 0.0000 0.7968 0.6043
vn -0.7486 0.5713 0.3366
vn -0.3631 0.4401 0.8213
usemtl None
s off
f 1//1 2//1 9//1 8//1
f 2//2 84//2 83//2 9//2
f 3//3 4//3 12//3 11//3
f 4//4 5//4 13//4 12//4
f 5//5 113//5 114//5 14//5 13//5
f 6//6 7//6 18//6 17//6
f 7//7 8//7 19//7 18//7
f 8//8 9//8 20//8 19//8
f 9//9 83//9 87//9 20//9
f 10//10 11//10 22//10 21//10
f 11//11 12//11 23//11 22//11
f 12//12 13//12 24//12 23//12
f 13//13 14//13 25//13 24//13
f 14//1 15//1 26//1 25//1
f 15//14 111//14 109//14 26//14
f 16//15 17//15 28//15 27//15
f 17//16 18//16 29//16 28//16
f 18//1 19//1 30//1 29//1
f 19//6 20//6 31//6 30//6
f 20//17 87//17 86//17 31//17
f 21//18 22//18 33//18 32//18
f 22//19 23//19 34//19 33//19
f 23//20 24//20 110//20 112//20 34//20
f 24//21 25//21 35//21 108//21 110//21
f 25//22 26//22 36//22 35//22
f 26//23 109//23 105//23 36//23
f 27//24 28//24 93//24 94//24
f 28//25 29//25 37//25 92//25 93//25
f 29//26 30//26 38//26 37//26
f 30//27 31//27 39//27 38//27
f 31//28 86//28 85//28 39//28
f 32//29 33//29 40//29 117//29 119//29
f 33//19 34//19 41//19 40//19
f 34//14 112//14 103//14 41//14
f 35//24 36//24 106//24 107//24
f 36//30 105//30 106//30
f 37//31 38//31 89//31 91//31
f 38//32 39//32 90//32 89//32
f 39//30 85//30 90//30
f 40//31 41//31 104//31 118//31
f 41//33 103//33 104//33
f 42//1 43//1 47//1 46//1
f 43//5 127//5 130//5 48//5 47//5
f 44//11 45//11 50//11 49//11
f 45//34 134//34 145//34 51//34 50//34
f 46//6 47//6 56//6 55//6
f 47//6 48//6 57//6 56//6
f 48//17 129//17 138//17 57//17
f 49//35 50//35 59//35 58//35
f 50//36 51//36 60//36 59//36
f 51//37 52//37 61//37 60//37
f 52//1 53//1 62//1 61//1
f 53//14 143//14 156//14 62//14
f 54//38 55//38 64//38 63//38
f 55//19 56//19 65//19 64//19
f 56//27 57//27 66//27 65//27
f 57//28 138//28 139//28 66//28
f 58//39 59//39 68//39 67//39
f 59//40 60//40 69//40 68//40
f 60//41 61//41 70//41 69//41
f 61//42 62//42 155//42 153//42 70//42
f 62//33 156//33 155//33
f 63//15 64//15 72//15 71//15
f 64//19 65//19 73//19 72//19
f 65//43 66//43 74//43 73//43
f 66//2 139//2 149//2 74//2
f 67//44 68//44 162//44 159//44
f 68//31 69//31 157//31 162//31
f 69//32 70//32 154//32 157//32
f 70//30 153//30 154//30
f 71//44 72//44 160//44 161//44
f 72//31 73//31 151//31 160//31
f 73//32 74//32 150//32 151//32
f 74//30 149//30 150//30
f 75//45 76//45 78//45 77//45
f 77//46 78//46 82//46 81//46
f 81//47 82//47 80//47 79//47
f 79//48 80//48 76//48 75//48
f 77//49 81//49 79//49 166//49 171//49 168//49
f 82//1 138//1 129//1 130//1 127//1 128//1 131//1 133//1 170//1 165//1 163//1 103//1 112//1 110//1 108//1 107//1 106//1 105//1 92//1 91//1 89//1 90//1 85//1 86//1 80//1
f 141//50 140//50 54//50
f 124//51 123//51 3//51 11//51 10//51
f 137//50 136//50 44//50
f 133//50 131//50 42//50
f 120//52 121//52 21//52 32//52
f 101//50 95//50 6//50
f 159//53 158//53 67//53
f 148//54 137//54 44//54 49//54
f 135//55 134//55 45//55
f 126//56 125//56 4//56 3//56
f 142//54 141//54 54//54 63//54
f 145//57 146//57 52//57 51//57
f 140//58 132//58 46//58 55//58 54//58
f 158//52 147//52 58//52 67//52
f 88//59 84//59 2//59
f 94//53 99//53 27//53
f 132//54 133//54 42//54 46//54
f 128//55 127//55 43//55
f 97//60 88//60 2//60 1//60
f 98//61 97//61 1//61
f 96//62 98//62 1//62 8//62 7//62
f 115//55 111//55 15//55
f 107//53 108//53 35//53
f 144//55 143//55 53//55
f 119//53 120//53 32//53
f 130//55 129//55 48//55
f 118//63 117//63 40//63
f 91//63 92//63 37//63
f 131//64 128//64 43//64 42//64
f 114//64 115//64 15//64 14//64
f 121//52 122//52 10//52 21//52
f 123//61 126//61 3//61
f 116//55 113//55 5//55
f 100//61 102//61 16//61
f 161//53 152//53 71//53
f 95//64 96//64 7//64 6//64
f 146//64 144//64 53//64 52//64
f 122//61 124//61 10//61
f 125//64 116//64 5//64 4//64
f 99//52 100//52 16//52 27//52
f 152//65 142//65 63//65 71//65
f 147//65 148//65 49//65 58//65
f 136//64 135//64 45//64 44//64
f 102//66 101//66 6//66 17//66 16//66
f 80//1 86//1 87//1 83//1 84//1 88//1 97//1 98//1 96//1 95//1 101//1 102//1 100//1 99//1 94//1 93//1 92//1 105//1 109//1 111//1 115//1 114//1 113//1 116//1 125//1 126//1 123//1 124//1 122//1 76//1
f 78//1 147//1 158//1 159//1 162//1 157//1 154//1 153//1 155//1 156//1 142//1 152//1 161//1 160//1 151//1 150//1 149//1 139//1 138//1 82//1
f 166//45 165//45 170//45 169//45 171//45
f 164//49 166//49 79//49 75//49 77//49 168//49
f 171//48 169//48 172//48 167//48 168//48
f 168//47 167//47 163//47 164//47
f 103//1 163//1 167//1 172//1 169//1 170//1 133//1 132//1 140//1 141//1 142//1 156//1 143//1 144//1 146//1 145//1 134//1 135//1 136//1 137//1 148//1 147//1 78//1 76//1 122//1 121//1 120//1 119//1 117//1 118//1 104//1
f 164//46 163//46 165//46 166//46
